<svg xmlns="http://www.w3.org/2000/svg" width="512" height="512" viewBox="0 0 512 512" fill="none"><rect width="512" height="512" rx="32" fill="#F4F1EA"/><g filter="url(#a)"><circle cx="256" cy="256" r="140" fill="#9DC183"/></g><path d="M256 168c-38 0-68 30-68 68 0 50 42 79 64 90 4 2 8 2 12 0 22-11 64-40 64-90 0-38-30-68-68-68Zm0 96c-16 0-28-12-28-28s12-28 28-28 28 12 28 28-12 28-28 28Z" fill="#2F5233"/><defs><filter id="a" x="76" y="86" width="360" height="360" filterUnits="userSpaceOnUse" color-interpolation-filters="sRGB"><feFlood flood-opacity="0" result="BackgroundImageFix"/><feColorMatrix in="SourceAlpha" type="matrix" values="0 0 0 0 0 0 0 0 0 0 0 0 0 0 0 0 0 0 127 0" result="hardAlpha"/><feOffset dy="8"/><feGaussianBlur stdDeviation="20"/><feComposite in2="hardAlpha" operator="out"/><feColorMatrix type="matrix" values="0 0 0 0 0.09 0 0 0 0 0.19 0 0 0 0 0.11 0 0 0 0.2 0"/><feBlend in2="BackgroundImageFix" result="effect1_dropShadow"/><feBlend in="SourceGraphic" in2="effect1_dropShadow" result="shape"/></filter></defs></svg>